{
	"asset":{
		"generator":"Khronos glTF Blender I/O v4.0.43",
		"version":"2.0"
	},
	"scene":0,
	"scenes":[
		{
			"name":"Scene",
			"nodes":[
				0
			]
		}
	],
	"nodes":[
		{
			"mesh":0,
			"name":"hexa_ gray",
			"rotation":[
				0,
				0.7071066498756409,
				-0.7071069478988647,
				1.5734924829757801e-07
			],
			"scale":[
				0.009999995119869709,
				0.009999995119869709,
				0.009999995119869709
			]
		}
	],
	"meshes":[
		{
			"name":"Mesh_gray",
			"primitives":[
				{
					"attributes":{
						"COLOR_0":0,
						"POSITION":1,
						"NORMAL":2,
						"TEXCOORD_0":3
					},
					"indices":4
				}
			]
		}
	],
	"accessors":[
		{
			"bufferView":0,
			"componentType":5123,
			"count":204,
			"normalized":true,
			"type":"VEC4"
		},
		{
			"bufferView":1,
			"componentType":5126,
			"count":204,
			"max":[
				113.52738189697266,
				104.5025863647461,
				1375.802001953125
			],
			"min":[
				-113.52730560302734,
				-104.50308227539062,
				-27.7171688079834
			],
			"type":"VEC3"
		},
		{
			"bufferView":2,
			"componentType":5126,
			"count":204,
			"type":"VEC3"
		},
		{
			"bufferView":3,
			"componentType":5126,
			"count":204,
			"type":"VEC2"
		},
		{
			"bufferView":4,
			"componentType":5123,
			"count":948,
			"type":"SCALAR"
		}
	],
	"bufferViews":[
		{
			"buffer":0,
			"byteLength":1632,
			"byteOffset":0,
			"target":34962
		},
		{
			"buffer":0,
			"byteLength":2448,
			"byteOffset":1632,
			"target":34962
		},
		{
			"buffer":0,
			"byteLength":2448,
			"byteOffset":4080,
			"target":34962
		},
		{
			"buffer":0,
			"byteLength":1632,
			"byteOffset":6528,
			"target":34962
		},
		{
			"buffer":0,
			"byteLength":1896,
			"byteOffset":8160,
			"target":34963
		}
	],
	"buffers":[
		{
			"byteLength":10056,
			"uri":"HexaGray.bin"
		}
	]
}
