{
	"asset":{
		"generator":"Khronos glTF Blender I/O v4.0.43",
		"version":"2.0"
	},
	"scene":0,
	"scenes":[
		{
			"name":"Scene",
			"nodes":[
				0
			]
		}
	],
	"nodes":[
		{
			"mesh":0,
			"name":"hexa_ front",
			"rotation":[
				0,
				0.7071066498756409,
				-0.70710688829422,
				1.573492340867233e-07
			],
			"scale":[
				0.009999996051192284,
				0.009999996051192284,
				0.009999996051192284
			]
		}
	],
	"meshes":[
		{
			"name":"Mesh",
			"primitives":[
				{
					"attributes":{
						"COLOR_0":0,
						"POSITION":1,
						"NORMAL":2,
						"TEXCOORD_0":3
					},
					"indices":4
				}
			]
		}
	],
	"accessors":[
		{
			"bufferView":0,
			"componentType":5123,
			"count":288,
			"normalized":true,
			"type":"VEC4"
		},
		{
			"bufferView":1,
			"componentType":5126,
			"count":288,
			"max":[
				113.52725982666016,
				104.5025863647461,
				27.717172622680664
			],
			"min":[
				-113.52730560302734,
				-104.50359344482422,
				-27.7171688079834
			],
			"type":"VEC3"
		},
		{
			"bufferView":2,
			"componentType":5126,
			"count":288,
			"type":"VEC3"
		},
		{
			"bufferView":3,
			"componentType":5126,
			"count":288,
			"type":"VEC2"
		},
		{
			"bufferView":4,
			"componentType":5123,
			"count":1356,
			"type":"SCALAR"
		}
	],
	"bufferViews":[
		{
			"buffer":0,
			"byteLength":2304,
			"byteOffset":0,
			"target":34962
		},
		{
			"buffer":0,
			"byteLength":3456,
			"byteOffset":2304,
			"target":34962
		},
		{
			"buffer":0,
			"byteLength":3456,
			"byteOffset":5760,
			"target":34962
		},
		{
			"buffer":0,
			"byteLength":2304,
			"byteOffset":9216,
			"target":34962
		},
		{
			"buffer":0,
			"byteLength":2712,
			"byteOffset":11520,
			"target":34963
		}
	],
	"buffers":[
		{
			"byteLength":14232,
			"uri":"hexa2.bin"
		}
	]
}
